<?xml version="1.0" encoding="UTF-8" standalone="no"?>
<!DOCTYPE svg PUBLIC "-//W3C//DTD SVG 1.1//EN" "http://www.w3.org/Graphics/SVG/1.1/DTD/svg11.dtd">
<svg width="100%" height="100%" viewBox="0 0 5906 5906" version="1.1" xmlns="http://www.w3.org/2000/svg" xmlns:xlink="http://www.w3.org/1999/xlink" xml:space="preserve" xmlns:serif="http://www.serif.com/" style="fill-rule:evenodd;clip-rule:evenodd;stroke-linejoin:round;stroke-miterlimit:2;">
    <g transform="matrix(19.7466,0,0,19.7466,-26768,-70043.5)">
        <g transform="matrix(0.947499,0,0,0.947499,1158.6,3593.84)">
            <path d="M436.33,198.164L449.109,198.164C450.48,198.216 451.195,198.885 451.254,200.171L451.254,202.33L444.713,202.33L444.713,201.517L440.827,201.517L440.827,202.407L449.575,203.359C450.788,203.816 451.394,204.624 451.394,205.784L451.394,208.756C451.394,210.288 450.688,211.097 449.276,211.182L436.395,211.182C434.913,211.326 434.172,209.955 434.172,207.067L440.789,207.067L440.789,207.867L444.828,207.867L444.828,206.903L435.675,205.95C434.673,205.551 434.172,204.743 434.172,203.523L434.172,200.856C434.172,199.146 434.892,198.249 436.33,198.164ZM304.67,192.893L311.325,192.893L311.325,199.841L319.148,198.786C320.672,198.583 321.514,199.3 321.675,200.933L321.675,211.131L315.096,211.131L315.096,203.752L311.261,204.325L311.261,211.131L304.67,211.131L304.67,192.893ZM326.326,198.216L339.49,198.216C340.889,198.266 341.606,198.93 341.64,200.21L341.64,204.387L340.027,206L332.064,206L332.064,203.308L334.896,203.308L334.896,201.48L330.87,201.48L330.87,207.906L334.896,207.906L334.896,206.991L341.64,206.991L341.64,209.176C341.538,210.487 340.823,211.152 339.495,211.17L326.36,211.17C324.871,211.076 324.126,210.044 324.126,208.07L324.126,201.314C324.126,199.273 324.86,198.24 326.326,198.216ZM387.13,198.164L400.531,198.164C401.961,198.164 402.676,198.867 402.676,200.272L402.676,203.612L395.704,203.612L395.704,202.571L391.907,202.571L391.907,206.711L395.704,206.711L395.704,205.632L402.689,205.632L402.689,209.01C402.689,210.288 401.995,210.991 400.606,211.118L387.02,211.118C385.706,211.042 385.002,210.378 384.909,209.124L384.909,200.158C384.909,198.906 385.649,198.24 387.13,198.164ZM375.612,197.643L382.419,197.643L382.419,192.894L375.612,192.894L375.612,197.643ZM359.128,198.05C360.465,198.05 361.388,198.422 361.896,199.167L370.482,198.012C371.904,198.012 372.789,198.77 373.136,200.285L373.136,211.131L366.138,211.131L366.138,203.282L362.176,203.892L362.176,211.131L355.165,211.131L355.165,203.282L351.203,203.892L351.203,211.131L344.205,211.131L344.205,198.088L351.203,198.088L351.203,199.129L359.128,198.05ZM375.612,211.182L382.419,211.182L382.419,198.508L375.612,198.508L375.612,211.182ZM424.978,211.106L431.595,211.106L431.595,192.792L424.978,192.792L424.978,211.106ZM282.041,192.945L299.993,192.945C301.316,193.02 302.024,193.795 302.117,195.268L302.117,200.616L295.386,200.616L295.386,197.86L286.724,197.86L286.724,206.292L295.386,206.292L295.386,203.536L302.117,203.536L302.117,208.884C302.066,210.254 301.359,211.029 299.996,211.207L282.075,211.207C280.823,211.14 280.133,210.411 280.006,209.023L280.006,195.129C280.006,193.698 280.684,192.97 282.041,192.945ZM407.577,198.216L420.229,198.216C421.574,198.266 422.272,198.968 422.323,200.324L422.323,211.143L415.757,211.143L415.757,205.898L411.579,205.898L411.579,207.626L414.64,207.321L414.64,210.306L407.375,211.207C405.877,211.207 405.085,210.456 405,208.95L405,205.02C405.026,203.904 405.754,203.24 407.185,203.028L415.745,203.028L415.745,201.58L411.122,201.58L411.122,202.343L405.356,202.343L405.356,200.133C405.356,198.906 406.096,198.266 407.577,198.216Z" style="fill:rgb(235,131,50);"/>
        </g>
        <g transform="matrix(0.947499,0,0,0.947499,1158.6,3461.83)">
            <path d="M312.193,270.329C289.689,271.89 265.978,274.531 240.207,278.304C240.207,278.304 271.428,270.245 311.449,266.115C311.664,266.696 311.89,267.271 312.126,267.84C312.131,267.854 312.134,267.867 312.135,267.881C312.138,267.943 312.095,267.997 312.038,268.001C311.248,268.036 310.493,268.121 309.772,268.255C309.09,268.383 308.468,268.454 307.83,268.766C307.744,268.808 307.676,268.864 307.628,268.935C307.611,268.959 307.597,268.985 307.586,269.014C307.513,269.199 307.591,269.415 307.761,269.495C308.196,269.698 308.639,269.839 309.09,269.921C310.071,270.096 311.105,270.232 312.193,270.329ZM416.222,267.697C416.863,267.776 417.501,267.857 418.136,267.937C417.515,267.888 416.894,267.84 416.279,267.786C416.212,267.781 416.193,267.751 416.222,267.697ZM422.976,268.575C457.471,273.266 481.205,279.677 481.205,279.677C457.518,275.605 435.037,272.619 412.709,270.784C415.057,270.655 417.232,270.502 419.232,270.325C420.117,270.247 420.997,270.13 421.875,269.975C422.468,269.871 423.224,269.723 423.661,269.314C423.682,269.295 423.699,269.272 423.712,269.247C423.777,269.126 423.738,268.969 423.626,268.898C423.411,268.761 423.194,268.653 422.976,268.575ZM330.273,264.543C335.965,264.185 341.754,263.932 347.587,263.812C347.815,264.828 348.12,265.827 348.485,266.792C348.489,266.802 348.491,266.812 348.491,266.823C348.492,266.871 348.457,266.911 348.414,266.912C344.227,266.973 340.336,267.041 336.741,267.116C334.957,267.153 333.011,267.214 330.904,267.3L330.896,267.3C330.857,267.298 330.827,267.26 330.829,267.217C330.858,266.776 330.892,266.23 330.808,265.809C330.71,265.314 330.532,264.892 330.273,264.543ZM360.442,263.769C360.827,263.774 361.211,263.78 361.595,263.785C361.067,264.533 360.906,265.505 361.411,266.832C361.414,266.841 361.415,266.851 361.415,266.86C361.414,266.899 361.384,266.93 361.348,266.93L360.502,266.896C360.442,266.893 360.413,266.86 360.414,266.795L360.442,263.769ZM382.059,264.552C388.805,264.95 395.382,265.476 401.731,266.093C401.966,266.453 402.196,266.822 402.422,267.201C402.431,267.215 402.436,267.233 402.435,267.251C402.432,267.296 402.396,267.33 402.355,267.327C400.191,267.223 398.108,267.153 396.107,267.118C391.055,267.026 386.146,266.967 381.384,266.938C381.307,266.937 381.284,266.897 381.317,266.82C381.454,266.482 381.578,266.134 381.69,265.778C381.817,265.368 381.94,264.96 382.059,264.552Z" style="fill:rgb(235,131,50);"/>
        </g>
        <g transform="matrix(0.947499,0,0,0.947499,1158.6,3340.53)">
            <path d="M311.449,394.139C310.948,392.786 310.503,391.403 310.115,389.989C308.911,385.612 308.68,381.014 310.012,376.652C310.84,373.944 312.541,371.476 314.531,369.638C314.623,369.554 314.656,369.415 314.613,369.292C314.369,368.601 314.145,367.914 313.941,367.231C312.863,363.627 312.493,359.876 312.622,356.089C312.712,353.448 313.135,350.894 313.891,348.428C315.494,343.208 318.35,339.219 322.461,336.459C325.588,334.361 329.04,333.412 332.816,333.612C333.158,333.629 333.499,333.671 333.84,333.738C333.886,333.748 333.934,333.736 333.97,333.705C334.987,332.89 335.939,332.109 336.824,331.361C336.938,331.265 337.017,331.139 337.062,330.982C337.701,328.779 338.464,326.644 339.351,324.576C339.487,324.258 339.459,323.972 339.421,323.628C339.048,320.23 339.335,317.047 340.284,314.08C342.545,307.005 348.201,301.498 355.364,302.381C355.963,302.455 356.533,302.593 357.076,302.793C357.283,302.869 357.277,302.914 357.061,302.93C356.57,302.966 356.071,302.932 355.587,303.028C353.986,303.349 352.457,303.675 351.012,304.494C350.798,304.617 350.525,304.602 350.353,304.785C350.285,304.857 350.298,304.893 350.393,304.892C351.53,304.879 352.712,305.109 353.938,305.58C356.777,306.669 359.282,308.508 361.453,311.096C364.024,314.158 366.023,317.927 366.857,322.046C367.011,322.81 367.1,323.598 367.123,324.41C367.13,324.587 367.08,324.725 367.043,324.892C367.012,325.039 367.042,325.056 367.134,324.943C369.364,322.215 370.397,318.964 370.234,315.193C370.215,314.78 370.165,314.38 370.084,313.992C369.977,313.487 370.06,313.445 370.335,313.868C371.53,315.706 372.281,317.722 372.588,319.916C372.71,320.788 372.764,321.865 372.749,323.148C372.745,323.54 372.677,323.883 372.615,324.263C372.558,324.61 372.606,324.629 372.76,324.32C375.356,319.09 374.569,312.601 371.492,307.738C368.669,303.276 364.387,300.265 359.463,299.691C357.708,299.487 355.892,299.552 354.016,299.884C353.879,299.908 353.852,299.86 353.934,299.738C354.633,298.695 355.311,297.65 356.089,296.684C358.412,293.801 360.824,291.313 363.324,289.219C365.846,287.107 368.612,285.062 371.623,283.086C371.742,283.006 371.829,282.896 371.885,282.755C374.339,276.434 379.956,272.662 386.194,273.224C390.296,273.591 394.421,276.449 395.548,280.989C395.589,281.156 395.7,281.347 395.819,281.457C397.772,283.261 399.053,285.701 400.271,288.143C400.292,288.187 400.276,288.241 400.236,288.265C400.219,288.275 400.199,288.278 400.179,288.273C400.11,288.253 400.039,288.247 399.97,288.256C399.198,288.349 398.449,288.551 397.677,288.587C396.88,288.625 396.051,288.483 395.188,288.16C394.227,287.799 393.175,287.517 392.229,287.432C390.065,287.236 388.167,288.115 387.146,290.276C385.883,292.955 386.952,295.106 389.036,296.74C389.065,296.763 389.105,296.756 389.126,296.724C389.126,296.723 389.127,296.723 389.127,296.722C389.567,296.006 390.105,295.353 390.743,294.764C390.854,294.66 390.837,294.604 390.692,294.596C389.544,294.517 388.404,293.161 388.958,291.901C389.417,290.867 390.653,290.484 391.64,290.604C392.29,290.683 392.94,290.846 393.59,291.094C395.055,291.653 396.561,292.178 398.091,292.088C399.121,292.029 400.102,291.626 401.124,291.437C401.561,291.355 402.122,291.355 402.462,291.713C402.991,292.271 402.883,293.199 402.488,293.817C402.083,294.45 401.525,294.862 400.811,295.051C400.759,295.066 400.744,295.1 400.765,295.156C401.055,295.907 401.409,296.627 401.824,297.315C401.877,297.401 401.858,297.428 401.769,297.397C401.757,297.392 401.748,297.381 401.744,297.364C401.741,297.35 401.735,297.343 401.723,297.342C400.715,297.199 399.76,297.34 398.858,297.764C398.801,297.792 398.75,297.781 398.707,297.731C397.055,295.832 394.831,295.59 393.077,297.487C392.304,298.325 391.911,299.676 392.004,300.885C392.106,302.209 392.684,303.344 393.738,304.29C393.775,304.322 393.787,304.363 393.775,304.413C393.49,305.535 393.327,306.592 392.863,307.651C392.824,307.741 392.843,307.759 392.92,307.706C394.335,306.741 395.811,306.169 397.347,305.992C398.29,305.884 399.517,305.901 400.492,306.11C400.983,306.215 402.494,306.601 402.738,307.071C402.764,307.12 402.773,307.179 402.762,307.234C402.047,310.945 400.151,313.597 397.075,315.189C396.827,315.318 396.839,315.359 397.11,315.312C400.377,314.756 403.293,315.664 405.86,318.035C408.55,320.523 410.391,323.696 411.38,327.555C411.481,327.941 411.497,328.32 411.522,328.717C411.527,328.817 411.553,328.823 411.598,328.735C411.863,328.205 412.045,327.665 412.143,327.118C412.71,323.928 412.352,320.936 411.07,318.142C409.63,315.011 407.263,312.544 404.242,311.229C404.159,311.192 404.119,311.089 404.153,310.999C404.154,310.996 404.154,310.994 404.156,310.991C404.425,310.354 404.615,309.675 404.727,308.953C404.738,308.889 404.771,308.866 404.829,308.885C405.104,308.978 405.399,309.01 405.676,309.124C407.822,310.007 409.71,311.404 411.378,313.156C415.204,317.178 416.969,322.641 416.447,328.39C416.206,331.06 415.347,333.585 413.869,335.964C413.771,336.125 413.714,336.293 413.615,336.443C413.58,336.494 413.535,336.509 413.481,336.488C412.16,335.977 410.891,335.552 409.514,334.864C409.152,334.684 408.825,334.433 408.518,334.159C408.495,334.14 408.462,334.146 408.445,334.172C408.431,334.193 408.431,334.221 408.446,334.242C408.776,334.644 409.144,335.077 409.553,335.542C410.742,336.896 411.771,338.428 412.639,340.136C413.776,342.368 414.351,344.857 414.36,347.6C414.361,347.885 414.329,348.169 414.265,348.451C414.222,348.636 414.258,348.655 414.373,348.513C416.478,345.883 417.155,342.37 416.534,338.973C416.52,338.898 416.543,338.882 416.601,338.925C416.668,338.976 416.724,339.04 416.769,339.118C417.394,340.208 417.979,341.341 418.285,342.574C419.211,346.287 418.962,349.937 417.541,353.527C417.468,353.711 417.491,353.878 417.609,354.027C419.261,356.126 420.586,358.358 421.526,360.954C424.741,369.826 423.162,380.043 419.859,388.568C418.973,390.855 417.955,392.956 416.805,394.868C416.629,395.16 416.42,395.419 416.234,395.702C416.229,395.709 416.226,395.715 416.222,395.721C416.193,395.775 416.212,395.805 416.279,395.81C416.894,395.864 417.515,395.912 418.136,395.961C419.771,396.17 421.385,396.382 422.976,396.599C423.194,396.677 423.411,396.785 423.626,396.922C423.738,396.993 423.777,397.15 423.712,397.271C423.699,397.296 423.682,397.319 423.661,397.338C423.224,397.747 422.468,397.895 421.875,397.999C420.997,398.154 420.117,398.271 419.232,398.349C417.232,398.526 415.057,398.679 412.709,398.808C379.978,396.118 347.578,395.9 312.193,398.353C311.105,398.256 310.071,398.12 309.09,397.945C308.639,397.863 308.196,397.722 307.761,397.519C307.591,397.439 307.513,397.223 307.586,397.038C307.597,397.009 307.611,396.983 307.628,396.959C307.676,396.888 307.744,396.832 307.83,396.79C308.468,396.478 309.09,396.407 309.772,396.279C310.493,396.145 311.248,396.06 312.038,396.025C312.095,396.021 312.138,395.967 312.135,395.905C312.134,395.891 312.131,395.878 312.126,395.864C311.89,395.295 311.664,394.72 311.449,394.139ZM401.731,394.117C401.44,393.67 401.142,393.238 400.839,392.82C400.062,391.758 400.209,390.598 401.059,389.705C401.805,388.919 402.481,388.411 402.568,387.172C402.635,386.197 403.034,385.33 403.654,384.627C403.86,384.392 404.062,384.154 404.259,383.909C404.298,383.862 404.294,383.788 404.251,383.745C404.249,383.744 404.248,383.743 404.247,383.742C401.09,380.914 398.681,377.566 397.019,373.695C394.859,368.663 394.319,362.575 395.966,357.23C396.228,356.378 396.562,355.632 396.875,354.832C396.896,354.779 396.888,354.732 396.849,354.691C394.817,352.556 393.261,350.097 392.178,347.314C392.15,347.241 392.102,347.221 392.036,347.255C391.119,347.72 390.172,348.157 389.18,348.438C389.057,348.473 388.965,348.568 388.904,348.688C387.025,352.412 384.367,355.157 380.931,356.925C380.884,356.949 380.844,356.939 380.81,356.894C377.678,352.548 373.725,349.325 368.951,347.226C366.765,346.265 364.312,345.475 362.248,343.903C361.899,343.637 361.579,343.283 361.301,342.926C361.237,342.845 361.213,342.857 361.232,342.963C361.474,344.449 361.894,345.674 362.492,346.639C363.58,348.395 365.029,349.932 366.841,351.249C368.708,352.609 370.055,353.571 370.883,354.139C373.766,356.12 376.265,358.553 378.381,361.437C379.401,362.827 380.416,364.46 380.871,366.18C380.871,366.185 380.875,366.187 380.878,366.186L380.918,366.174C380.935,366.169 380.942,366.158 380.939,366.139C380.587,363.458 379.985,360.781 379.016,358.269C378.89,357.939 378.932,357.911 379.142,358.184C379.822,359.061 380.493,359.976 381.033,360.975C383.129,364.86 384.214,369.49 384.456,373.926C384.652,377.527 384.464,381.073 383.892,384.563C383.459,387.202 382.847,389.873 382.059,392.576C381.94,392.984 381.817,393.392 381.69,393.802C381.578,394.158 381.454,394.506 381.317,394.844C381.284,394.921 381.307,394.961 381.384,394.962C386.146,394.991 391.055,395.05 396.107,395.142C398.108,395.177 400.191,395.247 402.355,395.351C402.396,395.354 402.432,395.32 402.435,395.275C402.436,395.257 402.431,395.239 402.422,395.225C402.196,394.846 401.966,394.477 401.731,394.117ZM361.595,391.809C362.118,391.07 363,390.55 363.952,390.125C364.068,390.074 364.144,389.951 364.146,389.815C364.179,387.893 364.18,386.132 364.149,384.533C364.145,384.362 364.085,384.216 363.967,384.096C359.991,380.076 356.559,375.025 354.553,369.523C352.73,364.526 352.348,359.323 353.406,353.913C353.546,353.201 353.739,352.454 353.987,351.672C354.02,351.569 353.991,351.453 353.914,351.382C348.32,346.164 344.187,338.948 342.871,330.98C342.668,329.745 342.562,328.575 342.554,327.469C342.551,327.101 342.508,327.095 342.426,327.452C341.6,331.031 341.542,334.724 342.372,338.295C343.753,344.246 347.238,349.338 351.642,353.146C351.697,353.192 351.71,353.251 351.68,353.321C351.617,353.473 351.562,353.632 351.515,353.798C349.204,362.233 350.977,371.476 355.508,378.686C357.517,381.883 359.827,384.576 362.439,386.766C362.484,386.805 362.5,386.855 362.486,386.918L362.464,387.011C362.451,387.064 362.444,387.12 362.442,387.176L362.414,388.189C362.413,388.256 362.387,388.307 362.334,388.341C361.702,388.762 361.099,389.231 360.525,389.748C360.481,389.787 360.46,389.837 360.46,389.898L360.414,394.819C360.413,394.884 360.442,394.917 360.502,394.92L361.348,394.954C361.384,394.954 361.414,394.923 361.415,394.884C361.415,394.875 361.414,394.865 361.411,394.856C360.906,393.529 361.067,392.557 361.595,391.809ZM347.587,391.836C346.749,388.106 346.945,384.156 348.963,380.872C349.367,380.215 349.824,379.577 350.334,378.958C350.351,378.937 350.349,378.905 350.33,378.887C350.327,378.883 350.323,378.881 350.319,378.879C348.404,377.876 346.708,376.61 345.232,375.081C343.257,373.037 341.676,370.832 340.49,368.467C340.452,368.393 340.415,368.393 340.378,368.467C339.914,369.362 339.402,370.251 338.844,371.132C337.41,373.391 335.629,375.175 333.503,376.481C333.332,376.586 333.231,376.748 333.198,376.97C332.867,379.214 332.155,381.291 331.064,383.204C330.015,385.045 328.652,386.658 327.217,388.224C327.044,388.411 326.864,388.701 326.906,388.98C326.98,389.451 327.103,389.902 327.276,390.331C327.68,391.327 328.28,391.329 329.066,391.652C329.574,391.862 329.976,392.167 330.273,392.567C330.532,392.916 330.71,393.338 330.808,393.833C330.892,394.254 330.858,394.8 330.829,395.241C330.827,395.284 330.857,395.322 330.896,395.324L330.904,395.324C333.011,395.238 334.957,395.177 336.741,395.14C340.336,395.065 344.227,394.997 348.414,394.936C348.457,394.935 348.492,394.895 348.491,394.847C348.491,394.836 348.489,394.826 348.485,394.816C348.12,393.851 347.815,392.852 347.587,391.836ZM368.961,336.525C368.919,336.275 368.979,336.24 369.142,336.42C370.694,338.127 371.701,340.178 372.164,342.574C372.264,343.092 372.302,343.594 372.28,344.079C372.26,344.48 372.316,344.493 372.446,344.117C372.539,343.85 372.632,343.585 372.726,343.32C373.219,341.931 373.431,340.411 373.364,338.759C373.226,335.395 372.037,332.479 369.799,330.011C369.757,329.965 369.712,329.961 369.664,329.997C367.22,331.891 364.119,332.591 361.188,332.032C360.916,331.98 360.894,332.038 361.124,332.207C364.184,334.455 366.84,337.822 367.847,341.73C367.955,342.155 367.966,342.573 368.008,343.007C368.026,343.21 368.076,343.219 368.156,343.033C368.326,342.631 368.523,342.222 368.643,341.802C369.151,340.003 369.257,338.244 368.961,336.525ZM400.737,328.636C400.717,330.998 400.464,332.915 399.49,335.03C397.877,338.526 394.868,341.005 391.47,342.187C390.095,342.665 388.853,342.956 387.744,343.062C387.538,343.081 387.534,343.123 387.731,343.188C389.829,343.874 391.939,343.967 394.059,343.467C395.521,343.123 396.918,342.4 398.25,341.299C400.548,339.401 402.028,336.985 402.692,334.051C403.426,330.808 403.092,327.731 401.688,324.82C400.749,322.873 399.374,321.336 397.562,320.208C396.961,319.834 396.238,319.627 395.566,319.379C395.497,319.352 395.42,319.356 395.353,319.39C392.049,321.063 391.103,324.277 391.47,328.002C391.647,329.794 391.699,331.476 391.627,333.046C391.625,333.109 391.651,333.139 391.708,333.138C395.146,333.1 398,332.142 400.207,329.168C400.335,328.994 400.444,328.81 400.533,328.616C400.543,328.593 400.559,328.578 400.581,328.571L400.641,328.554C400.705,328.534 400.737,328.561 400.737,328.636ZM377.474,327.284C379.609,330.331 382.862,332.318 386.256,332.852C386.905,332.954 387.553,333.035 388.2,333.096C388.239,333.1 388.272,333.069 388.276,333.027L388.276,333.026C388.34,332.196 388.369,331.366 388.365,330.536C388.346,327.154 387.374,324.201 385.454,321.675C383.444,319.035 380.516,317.106 377.437,316.666C377.411,316.661 377.386,316.682 377.382,316.711C377.381,316.72 377.382,316.73 377.386,316.739C377.497,317.024 377.59,317.313 377.665,317.607C378.467,320.745 378.39,323.878 377.431,327.003C377.403,327.099 377.419,327.204 377.474,327.284ZM388.128,283.254C390.391,282.582 392.982,282.911 394.836,284.617C394.865,284.643 394.9,284.657 394.937,284.657L396.564,284.69C396.625,284.691 396.641,284.663 396.614,284.604C396.292,283.901 395.842,283.266 395.263,282.699C393.775,281.244 391.496,281.133 389.709,282.078C389.13,282.386 388.588,282.745 388.083,283.157C387.944,283.272 387.958,283.304 388.128,283.254ZM392.374,278.017C391.007,276.258 389.259,275.28 387.138,275.427C385.886,275.512 384.773,275.95 383.799,276.74C383.775,276.759 383.757,276.784 383.746,276.815C383.738,276.837 383.749,276.862 383.77,276.871C383.776,276.874 383.785,276.874 383.792,276.873C385.11,276.608 386.323,276.878 387.431,277.683C387.597,277.804 387.652,277.958 387.595,278.147C387.587,278.176 387.602,278.208 387.629,278.217C387.638,278.22 387.648,278.221 387.657,278.218C389.201,277.771 390.751,277.796 392.332,278.098C392.414,278.114 392.428,278.087 392.374,278.017Z" style="fill:rgb(235,131,50);"/>
        </g>
        <g transform="matrix(0.947499,0,0,0.947499,1158.6,3522.36)">
            <path d="M260.642,231.859C260.642,232.115 260.545,232.332 260.353,232.509C260.16,232.685 259.935,232.774 259.679,232.774L226.642,232.774L226.642,245.921C226.642,245.985 226.73,246.122 226.906,246.33C227.083,246.539 227.444,246.643 227.99,246.643L246.483,246.643C246.997,246.643 247.358,246.547 247.567,246.354C247.775,246.162 247.88,246.033 247.88,245.969L247.88,244.573C244.958,243.256 242.028,241.932 239.091,240.599C236.153,239.267 233.223,237.943 230.302,236.626C230.077,236.53 229.924,236.386 229.844,236.193C229.764,236 229.74,235.808 229.772,235.615C229.804,235.422 229.892,235.254 230.037,235.109C230.181,234.965 230.382,234.893 230.639,234.893L259.823,234.893C260.433,234.893 260.738,235.198 260.738,235.808L260.738,247.799C260.738,249.533 260.537,250.97 260.136,252.109C259.735,253.249 259.053,254.301 258.089,255.264C257.19,256.099 256.179,256.757 255.055,257.238C253.932,257.72 252.631,258.073 251.154,258.298C250.577,258.394 249.798,258.474 248.819,258.539C247.84,258.603 246.836,258.651 245.809,258.683C244.846,258.715 243.602,258.739 242.077,258.755C240.551,258.771 238.922,258.779 237.188,258.779C235.262,258.779 233.584,258.771 232.156,258.755C230.727,258.739 229.531,258.715 228.568,258.683C227.541,258.651 226.553,258.603 225.606,258.539C224.659,258.474 223.88,258.394 223.27,258.298C221.826,258.105 220.558,257.752 219.466,257.238C218.374,256.725 217.427,256.083 216.625,255.312C215.629,254.381 214.899,253.313 214.433,252.109C213.968,250.905 213.735,249.469 213.735,247.799L213.735,232.051C213.735,228.327 214.803,225.518 216.938,223.623C219.073,221.729 222.355,220.782 226.786,220.782L259.679,220.782C259.935,220.782 260.16,220.87 260.353,221.047C260.545,221.224 260.642,221.44 260.642,221.697L260.642,231.859Z" style="fill:rgb(109,87,165);fill-rule:nonzero;"/>
        </g>
        <g transform="matrix(0.947499,0,0,0.947499,1158.6,3522.22)">
            <path d="M263.15,231.424C263.15,229.786 263.383,228.406 263.848,227.282C264.314,226.158 265.044,225.115 266.04,224.152C266.971,223.221 267.982,222.514 269.074,222.033C270.165,221.551 271.482,221.214 273.023,221.021L273.071,221.021C273.777,220.925 274.604,220.837 275.551,220.757C276.498,220.676 277.437,220.62 278.368,220.588C279.331,220.556 280.624,220.524 282.245,220.492C283.866,220.46 285.624,220.444 287.518,220.444C289.605,220.444 291.403,220.46 292.912,220.492C294.421,220.524 295.673,220.556 296.669,220.588C297.664,220.62 298.643,220.676 299.606,220.757C300.57,220.837 301.356,220.925 301.966,221.021C303.411,221.214 304.695,221.559 305.819,222.057C306.943,222.554 307.954,223.253 308.853,224.152C309.88,225.115 310.619,226.158 311.068,227.282C311.518,228.406 311.742,229.786 311.742,231.424L311.742,248.135C311.742,249.804 311.534,251.217 311.116,252.373C310.699,253.529 309.96,254.604 308.901,255.6L308.901,255.551C308.002,256.45 306.983,257.141 305.843,257.622C304.703,258.104 303.363,258.441 301.822,258.634C301.18,258.73 300.353,258.834 299.341,258.947C298.33,259.059 297.327,259.131 296.332,259.163C295.304,259.195 294.004,259.219 292.431,259.236C290.857,259.252 289.172,259.26 287.374,259.26C285.383,259.26 283.642,259.252 282.149,259.236C280.656,259.219 279.396,259.195 278.368,259.163C277.341,259.131 276.354,259.059 275.406,258.947C274.459,258.834 273.649,258.73 272.974,258.634C271.433,258.441 270.125,258.104 269.05,257.622C267.974,257.141 266.987,256.466 266.088,255.6C265.028,254.572 264.274,253.481 263.824,252.325C263.375,251.169 263.15,249.772 263.15,248.135L263.15,231.424ZM276.394,246.786C276.394,246.851 276.49,246.891 276.683,246.907C276.875,246.923 277.228,246.931 277.742,246.931L297.198,246.931C298.194,246.931 298.691,246.883 298.691,246.786L298.691,232.917C298.691,232.82 298.595,232.748 298.402,232.7C298.21,232.652 297.841,232.628 297.295,232.628L277.742,232.628C276.843,232.628 276.394,232.724 276.394,232.917L276.394,246.786Z" style="fill:rgb(109,87,165);fill-rule:nonzero;"/>
        </g>
        <g transform="matrix(0.947499,0,0,0.947499,1158.6,3522.13)">
            <path d="M363.565,257.286C363.919,257.543 364.015,257.864 363.854,258.249C363.694,258.634 363.389,258.827 362.939,258.827L348.106,258.827L328.409,241.056L328.409,257.912C328.409,258.169 328.313,258.393 328.12,258.586C327.96,258.747 327.751,258.827 327.494,258.827L315.069,258.827C314.845,258.827 314.62,258.747 314.395,258.586C314.235,258.361 314.154,258.137 314.154,257.912L314.154,221.841C314.154,221.648 314.235,221.439 314.395,221.215C314.556,221.054 314.78,220.974 315.069,220.974L344.35,220.974C345.731,220.974 346.983,221.03 348.106,221.143C349.23,221.255 350.274,221.391 351.237,221.552C353.099,221.937 354.608,222.611 355.764,223.575C356.919,224.538 357.754,225.79 358.268,227.331C358.525,228.166 358.717,229.089 358.846,230.1C358.974,231.111 359.054,232.227 359.087,233.447C359.087,235.438 358.942,237.171 358.653,238.648C358.364,240.157 357.883,241.409 357.208,242.405C356.502,243.432 355.651,244.251 354.656,244.861C353.661,245.471 352.376,245.904 350.803,246.161L363.565,257.286ZM343.435,236.577C344.045,236.577 344.575,236.433 345.024,236.144C345.506,235.759 345.747,235.309 345.747,234.796C345.747,234.314 345.522,233.897 345.072,233.543C344.623,233.254 344.125,233.11 343.579,233.11L328.409,233.11L328.409,236.577L343.435,236.577Z" style="fill:rgb(109,87,165);fill-rule:nonzero;"/>
        </g>
        <g transform="matrix(0.947499,0,0,0.947499,1158.6,3522.22)">
            <path d="M379.654,220.926C379.911,220.926 380.128,221.014 380.305,221.191C380.481,221.368 380.569,221.584 380.569,221.841L380.569,257.864C380.569,258.121 380.481,258.338 380.305,258.514C380.128,258.691 379.911,258.779 379.654,258.779L367.278,258.779C367.021,258.779 366.804,258.691 366.627,258.514C366.451,258.338 366.363,258.121 366.363,257.864L366.363,221.841C366.363,221.584 366.451,221.368 366.627,221.191C366.804,221.014 367.021,220.926 367.278,220.926L379.654,220.926Z" style="fill:rgb(109,87,165);fill-rule:nonzero;"/>
        </g>
        <g transform="matrix(0.947499,0,0,0.947499,1158.6,3522.22)">
            <path d="M419.438,246.932C420.048,246.932 420.353,247.237 420.353,247.847L420.353,257.864C420.353,258.121 420.264,258.338 420.088,258.514C419.911,258.691 419.695,258.779 419.438,258.779L383.896,258.779C383.64,258.779 383.423,258.691 383.246,258.514C383.07,258.338 382.981,258.121 382.981,257.864L382.981,221.841C382.981,221.584 383.07,221.368 383.246,221.191C383.423,221.014 383.64,220.926 383.896,220.926L396.321,220.926C396.578,220.926 396.795,221.014 396.972,221.191C397.148,221.368 397.236,221.584 397.236,221.841L397.236,246.932L419.438,246.932Z" style="fill:rgb(109,87,165);fill-rule:nonzero;"/>
        </g>
        <g transform="matrix(0.947499,0,0,0.947499,1158.6,3522.22)">
            <path d="M458.739,246.932C459.349,246.932 459.654,247.237 459.654,247.847L459.654,257.864C459.654,258.121 459.566,258.338 459.39,258.514C459.213,258.691 458.996,258.779 458.739,258.779L423.198,258.779C422.941,258.779 422.725,258.691 422.548,258.514C422.371,258.338 422.283,258.121 422.283,257.864L422.283,221.841C422.283,221.584 422.371,221.368 422.548,221.191C422.725,221.014 422.941,220.926 423.198,220.926L435.623,220.926C435.88,220.926 436.097,221.014 436.273,221.191C436.45,221.368 436.538,221.584 436.538,221.841L436.538,246.932L458.739,246.932Z" style="fill:rgb(109,87,165);fill-rule:nonzero;"/>
        </g>
        <g transform="matrix(0.947499,0,0,0.947499,1158.6,3522.22)">
            <path d="M477.574,258.297C477.509,258.394 477.389,258.498 477.212,258.61C477.036,258.723 476.867,258.779 476.707,258.779L462.644,258.779C462.291,258.779 462.026,258.635 461.85,258.346C461.673,258.057 461.665,257.736 461.826,257.382L481.571,221.408C481.635,221.279 481.755,221.167 481.932,221.071C482.108,220.974 482.261,220.926 482.389,220.926L497.222,220.926C497.383,220.926 497.543,220.974 497.704,221.071C497.864,221.167 497.977,221.279 498.041,221.408L517.545,257.382C517.738,257.736 517.738,258.057 517.545,258.346C517.353,258.635 517.08,258.779 516.727,258.779L502.857,258.779C502.696,258.779 502.536,258.723 502.375,258.61C502.215,258.498 502.102,258.394 502.038,258.297L499.149,252.904L483.931,252.904C483.577,252.904 483.312,252.759 483.136,252.47C482.959,252.181 482.967,251.876 483.16,251.555L487.928,242.453C487.992,242.325 488.104,242.22 488.265,242.14C488.425,242.06 488.57,242.02 488.698,242.02L493.321,242.02L491.636,238.793L491.684,238.793C491.459,238.408 491.283,238.095 491.154,237.854C491.026,237.613 490.897,237.388 490.769,237.18C490.641,236.971 490.496,236.722 490.336,236.433C490.175,236.144 489.966,235.759 489.71,235.277L477.574,258.297Z" style="fill:rgb(109,87,165);fill-rule:nonzero;"/>
        </g>
    </g>
</svg>
