<?xml version="1.0" encoding="UTF-8" standalone="no"?>
<!DOCTYPE svg PUBLIC "-//W3C//DTD SVG 1.1//EN" "http://www.w3.org/Graphics/SVG/1.1/DTD/svg11.dtd">
<svg width="100%" height="100%" viewBox="0 0 5906 5906" version="1.1" xmlns="http://www.w3.org/2000/svg" xmlns:xlink="http://www.w3.org/1999/xlink" xml:space="preserve" xmlns:serif="http://www.serif.com/" style="fill-rule:evenodd;clip-rule:evenodd;stroke-linejoin:round;stroke-miterlimit:2;">
    <g transform="matrix(7.40923,0,0,7.40923,-108.967,-99.8289)">
        <g transform="matrix(4.16667,0,0,4.16667,0,0)">
            <text x="12.071px" y="163.83px" style="font-family:'GreaterTheoryRegular', 'Greater Theory';font-size:7.704px;fill:rgb(183,134,40);fill-opacity:0.8;">afford<tspan x="51.512px " y="163.83px ">a</tspan>ble f<tspan x="86.508px 93.504px " y="163.83px 163.83px ">as</tspan>hion for all</text>
        </g>
        <g transform="matrix(4.16667,0,0,4.16667,0,0)">
            <text x="9.463px" y="154.912px" style="font-family:'Kugile';font-size:22.002px;fill:rgb(183,134,40);fill-opacity:0.8;">R<tspan x="24.611px 38.501px 52.263px 64.703px " y="154.912px 154.912px 154.912px 154.912px ">ozee</tspan></text>
            <text x="77.143px" y="154.912px" style="font-family:'ArialMT', 'Arial', sans-serif;font-size:22.002px;fill:rgb(183,134,40);fill-opacity:0.8;">&apos;</text>
            <text x="81.344px" y="154.912px" style="font-family:'Kugile';font-size:22.002px;fill:rgb(183,134,40);fill-opacity:0.8;">s c<tspan x="111.843px 116.731px 130.084px 137.701px 153.181px 159.036px 171.294px " y="154.912px 154.912px 154.912px 154.912px 154.912px 154.912px 154.912px ">lothing</tspan></text>
        </g>
        <g transform="matrix(4.16667,0,0,4.16667,0,-266.617)">
            <path d="M74.592,128.779C74.734,128.779 74.85,128.895 74.85,129.037C74.85,129.179 74.734,129.295 74.592,129.295C74.143,129.295 73.776,129.359 73.5,129.481C73.269,129.582 73.107,129.721 73.034,129.899C72.961,130.074 72.979,130.28 73.074,130.505C73.188,130.776 73.411,131.066 73.741,131.367C75.117,132.614 76.093,132.785 77.187,133.189C77.321,133.238 77.389,133.387 77.34,133.52C77.291,133.654 77.143,133.722 77.009,133.673C75.859,133.249 74.84,133.058 73.395,131.749L73.394,131.749C72.555,130.986 72.336,130.237 72.557,129.702C72.777,129.17 73.465,128.779 74.592,128.779Z" style="fill:rgb(151,112,36);"/>
        </g>
        <g transform="matrix(4.16667,0,0,4.16667,0,-305.213)">
            <path d="M74.758,131.815C74.899,131.835 74.997,131.965 74.977,132.106C74.957,132.247 74.826,132.345 74.685,132.325C73.939,132.219 73.298,132.196 72.788,132.281C72.34,132.356 72,132.512 71.807,132.793C71.538,133.185 71.56,133.785 71.865,134.64C73.002,137.183 75.185,138.741 77.911,139.788C78.044,139.839 78.11,139.989 78.059,140.122C78.008,140.254 77.859,140.321 77.726,140.27C74.861,139.169 72.582,137.515 71.389,134.84C71.387,134.834 71.384,134.828 71.382,134.822C70.998,133.748 71.044,132.993 71.382,132.501C71.596,132.19 71.929,131.971 72.374,131.845C72.97,131.677 73.781,131.676 74.758,131.815Z" style="fill:rgb(151,112,36);"/>
        </g>
        <g transform="matrix(4.16667,0,0,4.16667,0,-349.379)">
            <path d="M77.876,139.654C77.931,139.785 77.87,139.936 77.739,139.992C77.608,140.047 77.456,139.985 77.401,139.854C76.918,138.711 75.964,137.936 75.131,137.765C74.769,137.691 74.432,137.733 74.193,137.94C73.942,138.158 73.81,138.542 73.827,139.104C73.891,141.206 75.112,143.386 77.979,145.673C78.091,145.762 78.109,145.925 78.02,146.036C77.931,146.147 77.769,146.165 77.658,146.077C74.631,143.662 73.38,141.338 73.311,139.12C73.293,138.516 73.43,138.073 73.654,137.769C74.03,137.259 74.662,137.108 75.356,137.288C76.289,137.53 77.341,138.387 77.876,139.654Z" style="fill:rgb(151,112,36);"/>
        </g>
        <g transform="matrix(4.16667,0,0,4.16667,0,-256.979)">
            <path d="M69.506,126.493C69.648,126.484 69.77,126.593 69.778,126.735C69.787,126.877 69.678,126.999 69.536,127.007C67.778,127.11 66.739,127.695 66.367,128.418C66.026,129.079 66.304,129.827 67.074,130.3C71.662,133.125 74.481,132.321 77.15,131.457C77.285,131.413 77.431,131.487 77.475,131.623C77.519,131.758 77.444,131.903 77.309,131.947C74.526,132.849 71.587,133.685 66.803,130.74C65.766,130.101 65.449,129.073 65.908,128.182C66.335,127.353 67.491,126.609 69.506,126.493Z" style="fill:rgb(151,112,36);"/>
        </g>
        <g transform="matrix(4.16667,0,0,4.16667,0,-331.454)">
            <path d="M61.54,132.952C61.678,132.988 61.76,133.129 61.724,133.267C61.688,133.405 61.547,133.487 61.41,133.452C60.725,133.273 60.162,133.266 59.75,133.512C59.353,133.75 59.118,134.221 59.034,134.947C59.269,136.301 60.271,137.875 61.938,139.659C65.618,143.019 68.941,144.567 72.621,144.971C72.763,144.986 72.865,145.114 72.849,145.255C72.834,145.397 72.706,145.499 72.565,145.483C68.783,145.069 65.364,143.487 61.582,140.032C61.577,140.028 61.572,140.023 61.568,140.018C59.792,138.12 58.756,136.432 58.52,134.996C58.516,134.973 58.515,134.95 58.518,134.926C58.62,133.972 58.968,133.378 59.486,133.069C59.996,132.764 60.692,132.731 61.54,132.952Z" style="fill:rgb(151,112,36);"/>
        </g>
        <g transform="matrix(4.16667,0,0,4.16667,0,-396.963)">
            <path d="M62.398,141.333C62.519,141.408 62.557,141.567 62.482,141.688C62.408,141.809 62.249,141.847 62.127,141.773L58.484,139.532C58.016,139.327 57.613,139.22 57.279,139.206C56.993,139.194 56.766,139.249 56.607,139.386C56.452,139.519 56.371,139.724 56.352,139.986C56.328,140.3 56.392,140.685 56.543,141.134C56.545,141.142 56.548,141.15 56.55,141.158C56.788,142.188 57.303,142.83 57.981,144.005C59.54,146.302 61.1,147.944 62.659,149.351C65.895,152.204 68.393,153.898 71.033,155.113C71.162,155.172 71.219,155.325 71.16,155.455C71.1,155.584 70.947,155.641 70.817,155.581C68.138,154.348 65.601,152.632 62.317,149.736L62.315,149.735C60.726,148.301 59.137,146.628 57.548,144.286L57.538,144.27C56.829,143.039 56.302,142.361 56.05,141.287C55.681,140.18 55.813,139.388 56.271,138.994C56.47,138.823 56.734,138.717 57.063,138.693C57.493,138.662 58.047,138.776 58.709,139.067C58.72,139.072 58.73,139.077 58.74,139.083L62.398,141.333Z" style="fill:rgb(151,112,36);"/>
        </g>
        <g transform="matrix(4.16667,0,0,4.16667,0,-476.012)">
            <path d="M79.149,166.561C79.23,166.678 79.201,166.839 79.084,166.92C78.967,167.001 78.806,166.972 78.725,166.855C76.903,164.223 74.512,161.734 71.174,159.766C65.529,157.033 61.777,153.697 59.719,150.19L59.714,150.182L56.65,144.54L56.648,144.537C56.509,144.272 56.372,144.071 56.233,143.931C56.125,143.824 56.022,143.756 55.914,143.74C55.819,143.725 55.726,143.755 55.631,143.816C55.508,143.894 55.388,144.018 55.265,144.182C54.846,145.615 54.782,147.121 55.277,148.736L55.28,148.747C56.219,152.323 59.111,156.284 62.435,160.337C66.047,164.322 69.508,167.288 73.597,169.272C73.725,169.334 73.778,169.489 73.716,169.617C73.654,169.745 73.5,169.798 73.372,169.736C69.225,167.724 65.711,164.721 62.048,160.678L62.04,160.669C58.662,156.551 55.738,152.517 54.783,148.886C54.252,147.149 54.325,145.531 54.783,143.991C54.792,143.963 54.805,143.937 54.822,143.913C55.204,143.387 55.61,143.171 55.993,143.23C56.354,143.285 56.743,143.609 57.104,144.295L60.167,149.935C62.187,153.371 65.874,156.629 71.407,159.306C71.413,159.309 71.42,159.312 71.426,159.316C74.841,161.327 77.286,163.871 79.149,166.561Z" style="fill:rgb(151,112,36);"/>
        </g>
        <g transform="matrix(2.37102,-3.42628,-3.42628,-2.37102,628.629,1007.68)">
            <path d="M113.146,123.608C113.089,123.739 113.149,123.891 113.279,123.948C113.41,124.004 113.562,123.944 113.619,123.814C114.501,121.782 115.69,120.797 116.779,120.831C117.848,120.865 118.74,121.898 119.079,123.757C119.104,123.897 119.239,123.99 119.379,123.965C119.519,123.939 119.612,123.805 119.586,123.665C119.19,121.486 118.048,120.355 116.795,120.315C115.563,120.277 114.144,121.31 113.146,123.608Z" style="fill:rgb(151,112,36);"/>
        </g>
        <g transform="matrix(4.16667,0,0,4.16667,0,-246.475)">
            <path d="M115.51,125.341C115.368,125.331 115.261,125.208 115.271,125.066C115.281,124.924 115.404,124.817 115.546,124.827C116.686,124.908 117.881,125.155 119.173,125.696L119.178,125.699C120.834,126.439 121.747,127.301 121.888,128.23C122.03,129.164 121.408,130.227 119.845,131.374L119.843,131.375C118.478,132.362 116.406,132.81 113.653,132.719C113.511,132.714 113.4,132.595 113.404,132.452C113.409,132.31 113.528,132.199 113.671,132.203C116.278,132.29 118.247,131.892 119.54,130.958C120.237,130.447 120.736,129.963 121.042,129.501C121.321,129.081 121.435,128.685 121.378,128.307C121.32,127.925 121.09,127.568 120.711,127.226C120.298,126.853 119.713,126.503 118.968,126.17C117.736,125.654 116.597,125.418 115.51,125.341Z" style="fill:rgb(151,112,36);"/>
        </g>
        <g transform="matrix(4.16667,0,0,4.16667,0,-287.696)">
            <path d="M108.864,130.906C108.723,130.923 108.594,130.823 108.577,130.681C108.56,130.54 108.66,130.411 108.802,130.394C110.827,130.145 112.469,130.207 113.726,130.569C116.113,131.167 116.963,133.026 116.095,134.483C115.379,136.053 113.709,136.892 111.59,137.373C111.451,137.404 111.313,137.317 111.281,137.178C111.25,137.039 111.337,136.901 111.476,136.869C113.42,136.429 114.978,135.702 115.631,134.258C115.635,134.248 115.64,134.239 115.645,134.231C116.37,133.031 115.567,131.562 113.599,131.069L113.591,131.067C112.383,130.718 110.807,130.667 108.864,130.906Z" style="fill:rgb(151,112,36);"/>
        </g>
        <g transform="matrix(4.16667,0,0,4.16667,0,-171.95)">
            <path d="M127.314,117.187C127.173,117.207 127.042,117.109 127.023,116.968C127.003,116.827 127.101,116.696 127.242,116.677C129.407,116.375 130.7,117 131.131,117.81C131.586,118.665 131.174,119.807 129.754,120.512C123.425,123.655 117.473,122.446 113.529,120.08C113.407,120.007 113.368,119.848 113.441,119.726C113.514,119.604 113.673,119.565 113.795,119.638C117.619,121.932 123.389,123.097 129.524,120.05C130.604,119.514 131.021,118.702 130.675,118.052C130.538,117.795 130.285,117.573 129.926,117.408C129.329,117.136 128.457,117.028 127.314,117.187Z" style="fill:rgb(151,112,36);"/>
        </g>
        <g transform="matrix(4.16667,0,0,4.16667,0,-225.996)">
            <path d="M131.126,120.714C130.984,120.723 130.862,120.614 130.854,120.472C130.845,120.33 130.954,120.208 131.096,120.2L136.101,119.912L136.116,119.911C136.678,119.911 137.077,119.926 137.357,119.983C137.593,120.031 137.758,120.112 137.876,120.221C138.005,120.34 138.084,120.495 138.12,120.706C138.16,120.941 138.142,121.263 138.102,121.704C138.101,121.711 138.1,121.718 138.099,121.725C137.337,126.106 133.051,128.909 128.381,129.954C125.599,130.577 122.687,130.577 120.327,129.931C118.723,129.492 117.373,128.755 116.476,127.72C116.383,127.612 116.395,127.449 116.502,127.356C116.61,127.263 116.773,127.275 116.866,127.382C117.703,128.347 118.968,129.025 120.463,129.434C122.75,130.059 125.572,130.054 128.269,129.451C132.726,128.453 136.856,125.826 137.589,121.646C137.618,121.327 137.638,121.078 137.623,120.885C137.613,120.758 137.595,120.663 137.526,120.6C137.444,120.524 137.314,120.493 137.127,120.468C136.881,120.435 136.554,120.427 136.123,120.427L131.126,120.714Z" style="fill:rgb(151,112,36);"/>
        </g>
        <g transform="matrix(4.16667,0,0,4.16667,0,-319.758)">
            <path d="M132.4,133.859C132.264,133.9 132.12,133.822 132.079,133.686C132.038,133.55 132.116,133.406 132.252,133.365C134.968,132.551 137.691,131.695 140.526,130.282C141.809,129.468 142.767,129.387 143.385,129.903C143.424,129.936 143.453,129.979 143.467,130.027C144.378,133.089 142.424,136.186 139.141,138.811C134.32,142.665 126.658,145.522 121.494,145.842C121.352,145.851 121.229,145.743 121.221,145.601C121.212,145.459 121.32,145.336 121.462,145.328C126.542,145.013 134.077,142.199 138.819,138.408C141.883,135.958 143.795,133.111 142.995,130.254C142.782,130.103 142.516,130.059 142.202,130.108C141.802,130.171 141.334,130.379 140.793,130.724C140.785,130.728 140.777,130.733 140.769,130.737C137.901,132.168 135.147,133.036 132.4,133.859Z" style="fill:rgb(151,112,36);"/>
        </g>
        <g transform="matrix(4.16667,0,0,4.16667,0,-393.704)">
            <path d="M109.574,153.138C109.432,153.147 109.31,153.038 109.302,152.896C109.293,152.754 109.402,152.632 109.544,152.624C123.597,151.788 132.14,146.793 139.112,137.385C139.119,137.375 139.128,137.366 139.137,137.357C140.309,136.183 141.226,135.007 143.271,135.691C143.3,135.701 143.327,135.716 143.351,135.735C143.862,136.148 144.003,136.878 143.915,137.656C143.792,138.732 143.243,139.886 142.882,140.261L137.687,147.14C137.679,147.151 137.67,147.161 137.66,147.17C130.717,153.893 123.77,157.304 116.826,157.933C116.684,157.946 116.559,157.841 116.546,157.699C116.533,157.557 116.638,157.432 116.78,157.419C123.617,156.8 130.45,153.429 137.287,146.814L142.48,139.938C142.487,139.928 142.495,139.919 142.503,139.911C142.821,139.592 143.293,138.555 143.402,137.597C143.467,137.029 143.415,136.482 143.061,136.165C141.302,135.6 140.531,136.688 139.515,137.707C132.453,147.229 123.804,152.292 109.574,153.138Z" style="fill:rgb(151,112,36);"/>
        </g>
        <g transform="matrix(-3.82531,1.65169,1.65169,3.82531,619.675,-536.555)">
            <path d="M105.234,133.567C105.356,133.493 105.396,133.335 105.322,133.213C105.249,133.091 105.091,133.051 104.969,133.125C102.097,134.851 100.972,137.488 101.649,141.066C101.652,141.078 101.655,141.09 101.659,141.102C102.525,143.613 103.551,145.739 104.911,147.005C106.715,149.304 108.386,151.606 109.191,153.931C110.353,158.045 112.418,160.341 115.46,161.553C115.592,161.606 115.743,161.542 115.795,161.409C115.848,161.277 115.783,161.127 115.651,161.074C112.748,159.917 110.794,157.713 109.686,153.786L109.682,153.772C108.858,151.388 107.152,149.025 105.304,146.67C105.296,146.659 105.287,146.649 105.276,146.64C103.962,145.426 102.989,143.371 102.153,140.951C101.529,137.628 102.564,135.172 105.234,133.567Z" style="fill:rgb(151,112,36);"/>
        </g>
        <g transform="matrix(4.16667,0,0,4.16667,0,-412.667)">
            <path d="M106.946,140.489C106.81,140.537 106.691,140.627 106.556,140.676C106.491,140.699 103.487,139.91 101.138,140.836C98.839,141.741 97.038,144.192 94.929,149.503C94.64,150.232 94.642,150.272 94.532,150.463C91.197,156.272 86.088,157.423 82.743,157.686C82.714,157.688 82.723,157.669 82.47,157.451C82.563,157.376 82.61,157.253 82.704,157.179C82.754,157.139 85.749,157.121 88.748,155.525C91.321,154.156 92.978,152.141 94.088,150.208C94.193,150.027 94.306,149.651 94.801,148.454C97.605,141.678 100.021,139.979 103.532,139.873C104.873,139.832 106.268,140.098 106.476,140.136C106.641,140.166 106.642,140.161 106.653,140.169C106.828,140.3 106.77,140.357 106.946,140.489Z" style="fill:rgb(151,112,36);"/>
        </g>
        <g transform="matrix(4.16667,0,0,4.16667,0,-317.192)">
            <path d="M78.153,142.766C78.072,142.884 77.911,142.913 77.794,142.832C77.677,142.752 77.647,142.591 77.728,142.474C79.235,140.289 81.365,138.727 84.096,137.765C88.078,136.135 89.775,134.159 90.121,131.946C90.143,131.806 90.275,131.709 90.415,131.731C90.556,131.753 90.652,131.885 90.63,132.026C90.264,134.372 88.511,136.517 84.284,138.246L84.272,138.25C81.649,139.173 79.6,140.668 78.153,142.766Z" style="fill:rgb(151,112,36);"/>
        </g>
        <g transform="matrix(4.16667,0,0,4.16667,0,-389.792)">
            <path d="M93.299,136.343C93.372,136.44 93.485,136.502 93.558,136.598C93.572,136.617 93.55,137.082 93.548,137.124C93.255,143.165 86.9,145.836 85.176,146.77C80.434,149.34 78.588,152.381 78.208,155.372C78.204,155.402 78.217,155.439 78.197,155.461C78.071,155.594 78.037,155.553 77.91,155.687C77.851,155.581 77.745,155.506 77.685,155.4C77.672,155.378 77.758,154.89 77.766,154.846C78.803,148.948 84.915,146.361 86.522,145.493C91.423,142.843 93.044,139.759 93.045,136.685C93.045,136.657 93.028,136.624 93.045,136.602C93.153,136.455 93.19,136.49 93.299,136.343Z" style="fill:rgb(151,112,36);"/>
        </g>
        <g transform="matrix(4.16667,0,0,4.16667,0,-353.696)">
            <path d="M94.892,139.204C94.974,139.251 95.082,139.24 95.164,139.287C95.221,139.32 96.18,141.485 98.218,142.911C98.96,143.43 99.598,143.68 99.602,143.687C99.661,143.793 99.672,143.921 99.731,144.027C99.612,144.053 99.508,144.131 99.389,144.156C99.359,144.163 99.333,144.131 99.306,144.118C97.56,143.293 96.093,141.908 94.868,139.588C94.848,139.551 94.806,139.518 94.809,139.476C94.815,139.381 94.886,139.298 94.892,139.204Z" style="fill:rgb(151,112,36);"/>
        </g>
        <g transform="matrix(4.16667,0,0,4.16667,0,-238.052)">
            <path d="M103.683,112.673C101.64,114.412 99.362,116.25 99.804,117.364C100.759,119.767 102.236,121.411 107.876,122.723C113.846,124.112 115.306,131.625 112.641,139.873C112.294,140.949 110.322,146.818 111.092,155.165C111.112,155.381 111.12,155.382 111.114,155.396C111.044,155.568 110.953,155.505 110.883,155.677C110.816,155.576 110.668,155.547 110.601,155.445C110.601,155.445 110.546,154.898 110.503,154.269C109.916,145.806 112.032,140.135 112.326,139.169C114.632,131.582 113.303,124.524 107.828,123.234C104.261,122.393 101.317,121.32 99.876,118.712C99.687,118.371 99.31,117.602 99.259,117.272C99.039,115.854 101.184,114.144 103.205,112.42C103.225,112.402 103.435,112.223 103.472,112.208C103.532,112.184 104.188,112.067 104.878,111.75C105.434,111.494 105.797,111.205 105.984,111.042C105.837,110.505 105.616,109.549 105.897,107.75C106.173,105.98 106.897,104.784 106.965,104.628C107.214,104.054 107.741,102.669 107.403,100.445C107.382,100.309 107.377,100.309 107.38,100.298C107.446,100.101 107.508,100.131 107.574,99.936C107.656,100.046 107.792,100.108 107.874,100.218C107.875,100.218 107.936,100.587 107.972,100.984C108.075,102.098 108.021,103.456 107.425,104.828C107.261,105.205 106.463,106.424 106.295,108.684C106.272,108.986 106.166,109.845 106.49,110.986C106.552,111.203 106.542,111.24 106.197,111.521C105.256,112.286 104.217,112.546 103.683,112.673Z" style="fill:rgb(151,112,36);"/>
        </g>
        <g transform="matrix(-0.362192,-4.15089,-4.15089,0.362192,985.504,682.111)">
            <path d="M94.334,123.872C94.225,123.781 94.063,123.795 93.971,123.904C93.88,124.014 93.894,124.176 94.004,124.268C95.946,125.892 97.852,126.871 99.878,127.203C102.904,127.698 106.206,126.749 110.315,124.291C110.437,124.218 110.477,124.06 110.404,123.937C110.331,123.815 110.172,123.775 110.05,123.849C106.075,126.226 102.888,127.173 99.961,126.694C98.019,126.376 96.196,125.429 94.334,123.872Z" style="fill:rgb(151,112,36);"/>
        </g>
        <g transform="matrix(4.16667,0,0,4.16667,0,-212.742)">
            <path d="M90.623,119.333C90.708,119.45 90.87,119.497 90.955,119.615C90.973,119.641 89.251,121.426 88.448,123.702C87.793,125.557 87.811,127.461 88.378,129.798C88.386,129.829 88.414,129.863 88.401,129.893C88.332,130.063 88.281,130.035 88.212,130.205C88.12,130.126 87.993,130.094 87.9,130.015C87.879,129.997 87.743,129.304 87.731,129.242C86.94,125.227 87.9,122.519 90.623,119.333Z" style="fill:rgb(151,112,36);"/>
        </g>
        <g transform="matrix(4.16667,0,0,4.16667,0,-198.646)">
            <path d="M88.164,127.129C88.105,125.944 88.44,124.085 90.638,122.465C92.361,121.194 94.131,120.862 94.987,120.6C97.371,119.87 99.5,118.774 100.725,117.76C100.752,117.738 100.771,117.695 100.807,117.692C100.99,117.679 100.986,117.741 101.17,117.727C101.137,117.845 101.167,117.974 101.134,118.091C101.127,118.116 100.72,118.41 100.683,118.437C99.136,119.553 96.76,120.616 94.278,121.235C90.614,122.15 87.735,124.737 88.673,128.155C88.674,128.158 88.752,128.324 88.642,128.413C88.564,128.476 88.436,128.458 88.387,128.352C87.763,127.023 85.973,122.958 80.876,120.311C80.749,120.245 80.744,120.251 80.737,120.239C80.643,120.08 80.723,120.05 80.629,119.891C80.75,119.883 80.856,119.791 80.978,119.783C80.98,119.783 81.403,120.015 81.747,120.225C85.222,122.344 87.066,125.003 88.164,127.129Z" style="fill:rgb(151,112,36);"/>
        </g>
        <g transform="matrix(4.16667,0,0,4.16667,0,-238.917)">
            <path d="M85.375,121.853C85.425,121.94 85.523,121.994 85.574,122.082C85.585,122.103 85.523,122.665 85.517,122.716C85.363,124.102 84.92,126.375 82.87,128.256C82.638,128.469 82.313,128.636 81.61,129.226C79.155,131.287 78.852,133.065 78.772,133.74C78.769,133.769 78.751,133.757 78.487,133.967C78.425,133.861 78.321,133.785 78.26,133.68C78.259,133.679 78.302,133.294 78.413,132.898C79.208,130.053 82.082,128.282 82.473,127.98C82.681,127.82 83.037,127.429 83.083,127.378C84.485,125.838 84.985,124.049 85.138,122.154C85.141,122.12 85.125,122.078 85.146,122.051C85.241,121.931 85.281,121.973 85.375,121.853Z" style="fill:rgb(151,112,36);"/>
        </g>
        <g transform="matrix(4.15612,-0.296211,-0.296211,-4.15612,34.8744,853.705)">
            <path d="M83.733,113.436C83.6,113.385 83.451,113.451 83.399,113.584C83.348,113.716 83.414,113.866 83.547,113.917C89.372,116.172 96.583,115.938 104.773,113.927C104.911,113.893 104.996,113.754 104.962,113.615C104.928,113.477 104.788,113.392 104.65,113.426C96.579,115.408 89.473,115.658 83.733,113.436Z" style="fill:rgb(151,112,36);"/>
        </g>
        <g transform="matrix(4.16667,0,0,4.16667,0,-87.6317)">
            <path d="M105.866,99.033C105.885,99.162 105.941,99.284 105.96,99.413C105.968,99.466 104.804,101.676 104.999,105.041C105.294,110.15 108.267,115.376 111.767,120.118C111.884,120.277 111.742,120.284 111.713,120.479C111.604,120.425 111.461,120.478 111.352,120.425C111.322,120.41 110.585,119.363 110.519,119.27C105.266,111.812 103.058,105.133 105.464,99.365C105.518,99.235 105.514,99.233 105.523,99.225C105.676,99.099 105.713,99.159 105.866,99.033Z" style="fill:rgb(151,112,36);"/>
        </g>
        <g transform="matrix(4.16667,0,0,4.16667,0,18.1671)">
            <path d="M88.247,96.799C88.12,96.862 87.965,96.81 87.902,96.682C87.839,96.555 87.891,96.4 88.019,96.337C95.256,92.757 103.086,92.293 111.388,94.324C111.443,94.338 111.492,94.369 111.527,94.413C113.199,96.479 115.378,99.838 115.686,101.514C115.711,101.654 115.619,101.789 115.479,101.815C115.339,101.84 115.204,101.748 115.178,101.608C114.883,100.001 112.794,96.812 111.181,94.805C103.035,92.828 95.351,93.285 88.247,96.799Z" style="fill:rgb(151,112,36);"/>
        </g>
        <g transform="matrix(3.08309,2.80279,2.80279,-3.08309,-163.61,478.871)">
            <path d="M86.374,92.318C86.241,92.267 86.092,92.335 86.041,92.468C85.991,92.601 86.058,92.75 86.191,92.8C87.684,93.364 89.161,93.088 90.613,92.812C90.753,92.786 90.845,92.651 90.819,92.511C90.792,92.371 90.657,92.279 90.517,92.306C89.157,92.564 87.772,92.846 86.374,92.318Z" style="fill:rgb(151,112,36);"/>
        </g>
        <g transform="matrix(-3.44549,2.34301,2.34301,3.44549,403.352,-156.677)">
            <path d="M81.649,91.959C81.657,91.817 81.548,91.695 81.406,91.687C81.264,91.679 81.142,91.787 81.134,91.929C81.09,92.683 80.494,93.588 79.737,94.205C79.65,94.276 79.619,94.393 79.659,94.497C80.284,96.126 80.832,97.719 81.136,99.199C81.577,103.595 82.968,107.245 84.662,109.516C85.832,111.085 87.157,112 88.417,112.1C88.468,112.104 88.52,112.093 88.565,112.067C90.3,111.08 92.245,110.418 94.473,110.263C94.615,110.253 94.723,110.13 94.713,109.988C94.703,109.846 94.58,109.739 94.438,109.749C92.157,109.907 90.162,110.577 88.38,111.579C87.262,111.456 86.113,110.599 85.075,109.208C83.422,106.992 82.076,103.426 81.648,99.135C81.647,99.126 81.646,99.117 81.644,99.109C81.345,97.651 80.816,96.086 80.205,94.484C81.009,93.775 81.601,92.782 81.649,91.959Z" style="fill:rgb(151,112,36);"/>
        </g>
        <g transform="matrix(4.16667,0,0,4.16667,0,230.5)">
            <path d="M124.31,69.304C124.172,69.341 124.031,69.259 123.994,69.121C123.957,68.984 124.039,68.842 124.176,68.806C126.862,68.089 129.572,68.519 132.305,70.423C132.989,70.854 133.45,71.285 133.698,71.687C133.889,71.996 133.96,72.295 133.926,72.572C133.892,72.854 133.749,73.12 133.485,73.356C133.146,73.66 132.588,73.921 131.804,74.103L131.793,74.105C129.004,74.624 126.234,74.595 123.493,73.77C117.989,72.575 109.59,72.349 99.243,72.769C91.423,74.15 85.416,74.591 81.814,73.73C79.285,73.126 77.909,71.878 77.817,69.925C77.811,69.783 77.921,69.662 78.063,69.655C78.205,69.649 78.326,69.759 78.333,69.901C78.414,71.636 79.687,72.691 81.934,73.229C85.495,74.08 91.435,73.625 99.171,72.258C99.182,72.256 99.194,72.255 99.205,72.254C109.622,71.831 118.077,72.064 123.614,73.268C123.62,73.27 123.627,73.271 123.634,73.273C126.294,74.076 128.984,74.102 131.698,73.598C132.261,73.467 132.693,73.296 132.991,73.09C133.239,72.918 133.388,72.727 133.414,72.509C133.442,72.285 133.342,72.046 133.142,71.791C132.905,71.489 132.532,71.176 132.027,70.857L132.018,70.851C129.423,69.043 126.856,68.624 124.31,69.304Z" style="fill:rgb(151,112,36);"/>
        </g>
        <g transform="matrix(4.16667,0,0,4.16667,0,203.35)">
            <path d="M118.164,73.763C116.835,74.652 113.889,74.269 113.743,74.226C111.369,73.525 108.972,72.898 106.623,72.116C106.508,72.077 106.565,71.833 106.45,71.795C111.534,73.128 111.463,73.444 114.104,73.783C114.711,73.86 116.936,74.02 117.918,73.352C117.997,73.298 118.876,73.043 119.921,73.049C121.723,73.061 123.148,73.79 123.819,74.75C125.479,77.124 127.37,77.406 127.412,77.454C127.48,77.533 127.496,77.649 127.564,77.728C127.463,77.758 127.389,77.852 127.289,77.881C127.288,77.881 127.018,77.806 126.738,77.7C124.57,76.877 123.589,75.136 123.231,74.755C122.533,74.011 121.583,73.737 120.986,73.622C119.625,73.359 118.397,73.694 118.164,73.763Z" style="fill:rgb(151,112,36);"/>
        </g>
        <g transform="matrix(4.16667,0,0,4.16667,0,-165.135)">
            <path d="M106.951,81.047C106.944,81.189 106.823,81.299 106.681,81.292C106.538,81.285 106.429,81.164 106.435,81.022C106.573,78.175 105.935,75.986 104.334,74.638C102.724,73.282 100.162,72.786 96.508,73.278C94.947,73.717 93.132,74.35 91.58,75.335C90.055,76.304 88.782,77.616 88.283,79.435C87.618,81.861 87.069,83.941 86.334,85.4C85.823,86.415 85.217,87.137 84.441,87.499L80.174,90.742C79.651,91.187 79.207,91.868 78.827,92.767C78.238,94.161 77.812,96.065 77.528,98.426C77.9,100.163 78.116,102.425 78.04,105.656C78.04,105.667 78.039,105.678 78.037,105.688C77.553,108.936 77.379,111.555 77.628,113.337C77.782,114.441 78.084,115.211 78.613,115.566C78.687,115.616 78.73,115.701 78.727,115.791C78.604,118.876 79.348,121.635 81.57,123.84C81.605,123.876 81.63,123.921 81.64,123.97C83.17,131.146 83.494,138.455 80.946,146.084C80.927,146.14 80.889,146.189 80.839,146.22C74.769,150.042 69.82,154.085 68.065,158.799L68.058,158.815C67.507,160.029 67.167,161.057 67.057,161.927C66.954,162.747 67.058,163.417 67.4,163.956C67.743,164.499 68.323,164.905 69.142,165.209C70.004,165.528 71.123,165.732 72.513,165.846C74.492,165.814 75.228,165.733 77.439,165.507C83.764,151.942 91.477,142.236 101.937,140.307L101.938,140.307C108.471,139.111 112.663,140.912 115.278,144.713C115.83,145.515 116.126,146.987 116.085,148.668C116.024,151.147 115.241,154.077 113.575,155.905C111.793,157.873 109.326,159.129 106.96,160.418C106.905,160.449 106.84,160.457 106.778,160.443C97.236,158.186 92.024,159.131 89.299,161.987C89.201,162.09 89.038,162.094 88.935,161.996C88.832,161.898 88.828,161.734 88.926,161.631C91.72,158.703 97.046,157.627 106.8,159.918C109.088,158.673 111.471,157.461 113.193,155.558L113.193,155.558C114.781,153.816 115.512,151.018 115.569,148.655C115.607,147.107 115.361,145.744 114.854,145.005C112.343,141.355 108.304,139.666 102.031,140.814C91.675,142.724 84.097,152.404 77.844,165.858C77.806,165.94 77.727,165.996 77.637,166.005C75.286,166.245 74.558,166.33 72.509,166.362C72.5,166.362 72.492,166.362 72.483,166.361C71.031,166.242 69.863,166.026 68.963,165.692C68.018,165.342 67.36,164.859 66.964,164.232C66.565,163.602 66.425,162.821 66.546,161.862C66.66,160.954 67.01,159.877 67.584,158.613C69.366,153.835 74.343,149.709 80.486,145.833C82.962,138.355 82.643,131.188 81.152,124.152C78.897,121.881 78.107,119.061 78.207,115.907C77.653,115.463 77.286,114.617 77.117,113.408C76.864,111.595 77.033,108.931 77.525,105.628C77.599,102.434 77.386,100.203 77.015,98.493C77.009,98.465 77.008,98.436 77.011,98.408C77.501,94.301 78.438,91.533 79.848,90.342L79.858,90.334L84.151,87.071C84.166,87.059 84.183,87.049 84.201,87.042C84.895,86.727 85.418,86.071 85.873,85.168C86.596,83.732 87.131,81.685 87.786,79.298C88.32,77.351 89.671,75.937 91.304,74.9C92.905,73.883 94.777,73.228 96.387,72.776C96.398,72.773 96.41,72.77 96.422,72.769C100.276,72.248 102.969,72.815 104.666,74.244C106.376,75.683 107.098,78.007 106.951,81.047Z" style="fill:rgb(151,112,36);"/>
        </g>
    </g>
</svg>
